<svg width="657" height="74" viewBox="0 0 657 74" fill="none" xmlns="http://www.w3.org/2000/svg">
<path d="M24.5 47.5H55.5L40.5 10.5H39.5L24.5 47.5ZM51.5 2L80 72H65.6L59 55H21L14.4 72H7.07805e-08L28.5 2H51.5ZM102.531 72H88.5313V21H102.531V72ZM103.031 7.5C103.031 9.5 102.331 11.2667 100.931 12.8C99.5979 14.2667 97.7979 15 95.5313 15C93.2646 15 91.4313 14.2667 90.0313 12.8C88.6979 11.2667 88.0313 9.5 88.0313 7.5C88.0313 5.5 88.6979 3.76666 90.0313 2.3C91.4313 0.766664 93.2646 -2.86102e-06 95.5313 -2.86102e-06C97.7313 -2.86102e-06 99.5313 0.766664 100.931 2.3C102.331 3.76666 103.031 5.5 103.031 7.5ZM156.535 27H144.535C140.002 27 136.535 28.2333 134.135 30.7C131.735 33.1 130.535 36.7 130.535 41.5V72H116.535V41.5C116.535 34.7 118.668 29.4333 122.935 25.7C127.268 21.9 133.468 20 141.535 20H156.535V27ZM200.496 2C205.496 2 209.963 2.56666 213.896 3.7C217.896 4.76666 221.263 6.36666 223.996 8.49999C226.729 10.5667 228.829 13.1333 230.296 16.2C231.763 19.2 232.496 22.6333 232.496 26.5C232.496 30.3667 231.763 33.8333 230.296 36.9C228.829 39.9 226.729 42.4667 223.996 44.6C221.263 46.6667 217.896 48.2667 213.896 49.4C209.963 50.4667 205.496 51 200.496 51H178.996V72H164.496V2H200.496ZM178.996 9.5V43.5H200.496C205.763 43.5 209.829 42.1333 212.696 39.4C215.629 36.6 217.096 32.3 217.096 26.5C217.096 20.7 215.629 16.4333 212.696 13.7C209.829 10.9 205.763 9.5 200.496 9.5H178.996ZM269.547 67.5C271.68 67.5 273.68 67.1 275.547 66.3C277.414 65.5 279.047 64.2667 280.447 62.6C281.847 60.8667 282.947 58.6333 283.747 55.9C284.614 53.1667 285.047 49.8667 285.047 46C285.047 42.1333 284.614 38.8333 283.747 36.1C282.947 33.3667 281.847 31.1667 280.447 29.5C279.047 27.7667 277.414 26.5 275.547 25.7C273.68 24.9 271.68 24.5 269.547 24.5C267.414 24.5 265.414 24.9 263.547 25.7C261.68 26.5 260.047 27.7667 258.647 29.5C257.247 31.1667 256.114 33.3667 255.247 36.1C254.447 38.8333 254.047 42.1333 254.047 46C254.047 49.8667 254.447 53.1667 255.247 55.9C256.114 58.6333 257.247 60.8667 258.647 62.6C260.047 64.2667 261.68 65.5 263.547 66.3C265.414 67.1 267.414 67.5 269.547 67.5ZM269.547 18C274.014 18 278.114 18.6333 281.847 19.9C285.647 21.1 288.88 22.9 291.547 25.3C294.214 27.6333 296.28 30.5667 297.747 34.1C299.28 37.5667 300.047 41.5333 300.047 46C300.047 50.5333 299.28 54.5333 297.747 58C296.28 61.4667 294.214 64.4 291.547 66.8C288.88 69.1333 285.647 70.9 281.847 72.1C278.114 73.3667 274.014 74 269.547 74C265.014 74 260.88 73.3667 257.147 72.1C253.414 70.9 250.214 69.1333 247.547 66.8C244.88 64.4 242.78 61.4667 241.247 58C239.78 54.5333 239.047 50.5333 239.047 46C239.047 41.5333 239.78 37.5667 241.247 34.1C242.78 30.5667 244.88 27.6333 247.547 25.3C250.214 22.9 253.414 21.1 257.147 19.9C260.88 18.6333 265.014 18 269.547 18ZM352.066 65V27H339.566C337.3 27 335.2 27.3667 333.266 28.1C331.4 28.7667 329.766 29.8667 328.366 31.4C327.033 32.9333 325.966 34.9 325.166 37.3C324.433 39.7 324.066 42.6 324.066 46C324.066 49.4 324.433 52.3 325.166 54.7C325.966 57.1 327.033 59.0667 328.366 60.6C329.766 62.1333 331.4 63.2667 333.266 64C335.2 64.6667 337.3 65 339.566 65H352.066ZM339.566 72C334.966 72 330.766 71.4 326.966 70.2C323.233 69 320.033 67.2667 317.366 65C314.7 62.7333 312.633 60 311.166 56.8C309.766 53.6 309.066 50 309.066 46C309.066 42 309.766 38.4 311.166 35.2C312.633 32 314.7 29.2667 317.366 27C320.033 24.7333 323.233 23 326.966 21.8C330.766 20.6 334.966 20 339.566 20H352.066V2H366.066V72H339.566ZM392.023 31C392.023 32.5333 392.69 33.9333 394.023 35.2C395.423 36.4667 397.757 37.5667 401.023 38.5L416.523 43C421.323 44.4 425.023 46.3 427.623 48.7C430.223 51.1 431.523 54.2 431.523 58C431.523 60.4 431.023 62.6 430.023 64.6C429.023 66.5333 427.39 68.2 425.123 69.6C422.857 71 419.923 72.0667 416.323 72.8C412.723 73.6 408.29 74 403.023 74C400.29 74 397.59 73.8 394.923 73.4C392.323 73 389.823 72.4667 387.423 71.8C385.09 71.0667 382.957 70.2667 381.023 69.4C379.09 68.4667 377.423 67.5 376.023 66.5L380.023 60.5C382.823 62.2333 386.09 63.7667 389.823 65.1C393.623 66.3667 398.023 67 403.023 67C408.023 67 411.523 66.3333 413.523 65C415.523 63.6667 416.523 62 416.523 60C416.523 58.4667 415.823 57.1 414.423 55.9C413.023 54.6333 410.557 53.5 407.023 52.5L391.523 48C387.257 46.7333 383.757 44.9333 381.023 42.6C378.357 40.2 377.023 37 377.023 33C377.023 30.8667 377.49 28.9 378.423 27.1C379.423 25.2333 380.957 23.6333 383.023 22.3C385.09 20.9667 387.723 19.9333 390.923 19.2C394.123 18.4 397.99 18 402.523 18C408.057 18 413.057 18.7667 417.523 20.3C422.057 21.7667 425.723 23.5 428.523 25.5L424.523 31.5C421.79 29.7667 418.69 28.2667 415.223 27C411.757 25.6667 407.523 25 402.523 25C398.99 25 396.357 25.5667 394.623 26.7C392.89 27.8333 392.023 29.2667 392.023 31ZM512.508 2C517.508 2 521.974 2.56666 525.908 3.7C529.908 4.76666 533.274 6.36666 536.008 8.49999C538.741 10.5667 540.841 13.1333 542.308 16.2C543.774 19.2 544.508 22.6333 544.508 26.5C544.508 30.3667 543.774 33.8333 542.308 36.9C540.841 39.9 538.741 42.4667 536.008 44.6C533.274 46.6667 529.908 48.2667 525.908 49.4C521.974 50.4667 517.508 51 512.508 51H491.008V72H476.508V2H512.508ZM491.008 9.5V43.5H512.508C517.774 43.5 521.841 42.1333 524.708 39.4C527.641 36.6 529.108 32.3 529.108 26.5C529.108 20.7 527.641 16.4333 524.708 13.7C521.841 10.9 517.774 9.5 512.508 9.5H491.008ZM593.059 27H581.059C576.525 27 573.059 28.2333 570.659 30.7C568.259 33.1 567.059 36.7 567.059 41.5V72H553.059V41.5C553.059 34.7 555.192 29.4333 559.459 25.7C563.792 21.9 569.992 20 578.059 20H593.059V27ZM625.992 67.5C628.126 67.5 630.126 67.1 631.992 66.3C633.859 65.5 635.492 64.2667 636.892 62.6C638.292 60.8667 639.392 58.6333 640.192 55.9C641.059 53.1667 641.492 49.8667 641.492 46C641.492 42.1333 641.059 38.8333 640.192 36.1C639.392 33.3667 638.292 31.1667 636.892 29.5C635.492 27.7667 633.859 26.5 631.992 25.7C630.126 24.9 628.126 24.5 625.992 24.5C623.859 24.5 621.859 24.9 619.992 25.7C618.126 26.5 616.492 27.7667 615.092 29.5C613.692 31.1667 612.559 33.3667 611.692 36.1C610.892 38.8333 610.492 42.1333 610.492 46C610.492 49.8667 610.892 53.1667 611.692 55.9C612.559 58.6333 613.692 60.8667 615.092 62.6C616.492 64.2667 618.126 65.5 619.992 66.3C621.859 67.1 623.859 67.5 625.992 67.5ZM625.992 18C630.459 18 634.559 18.6333 638.292 19.9C642.092 21.1 645.326 22.9 647.992 25.3C650.659 27.6333 652.726 30.5667 654.192 34.1C655.726 37.5667 656.492 41.5333 656.492 46C656.492 50.5333 655.726 54.5333 654.192 58C652.726 61.4667 650.659 64.4 647.992 66.8C645.326 69.1333 642.092 70.9 638.292 72.1C634.559 73.3667 630.459 74 625.992 74C621.459 74 617.326 73.3667 613.592 72.1C609.859 70.9 606.659 69.1333 603.992 66.8C601.326 64.4 599.226 61.4667 597.692 58C596.226 54.5333 595.492 50.5333 595.492 46C595.492 41.5333 596.226 37.5667 597.692 34.1C599.226 30.5667 601.326 27.6333 603.992 25.3C606.659 22.9 609.859 21.1 613.592 19.9C617.326 18.6333 621.459 18 625.992 18Z" fill="white"/>
</svg>
