<svg width="136" height="17" viewBox="0 0 136 17" fill="none" xmlns="http://www.w3.org/2000/svg">
<path d="M0.44 5.24H3.56V16H0.44V5.24ZM2 3.74C1.42667 3.74 0.96 3.57333 0.6 3.24C0.24 2.90667 0.0600001 2.49333 0.0600001 2C0.0600001 1.50667 0.24 1.09333 0.6 0.76C0.96 0.426666 1.42667 0.259999 2 0.259999C2.57333 0.259999 3.04 0.419999 3.4 0.74C3.76 1.06 3.94 1.46 3.94 1.94C3.94 2.46 3.76 2.89333 3.4 3.24C3.04 3.57333 2.57333 3.74 2 3.74ZM12.7356 2C13.9756 2 15.049 2.20667 15.9556 2.62C16.8756 3.03333 17.5823 3.62 18.0756 4.38C18.569 5.14 18.8156 6.04 18.8156 7.08C18.8156 8.10667 18.569 9.00667 18.0756 9.78C17.5823 10.54 16.8756 11.1267 15.9556 11.54C15.049 11.94 13.9756 12.14 12.7356 12.14H9.91563V16H6.67563V2H12.7356ZM12.5556 9.5C13.529 9.5 14.269 9.29333 14.7756 8.88C15.2823 8.45333 15.5356 7.85333 15.5356 7.08C15.5356 6.29333 15.2823 5.69333 14.7756 5.28C14.269 4.85333 13.529 4.64 12.5556 4.64H9.91563V9.5H12.5556ZM27.6441 5.08C28.9774 5.08 30.0507 5.48 30.8641 6.28C31.6907 7.08 32.1041 8.26667 32.1041 9.84V16H28.9841V10.32C28.9841 9.46667 28.7974 8.83333 28.4241 8.42C28.0507 7.99333 27.5107 7.78 26.8041 7.78C26.0174 7.78 25.3907 8.02667 24.9241 8.52C24.4574 9 24.2241 9.72 24.2241 10.68V16H21.1041V1.16H24.2241V6.36C24.6374 5.94667 25.1374 5.63333 25.7241 5.42C26.3107 5.19333 26.9507 5.08 27.6441 5.08ZM40.1694 16.16C39.036 16.16 38.016 15.9267 37.1094 15.46C36.216 14.98 35.516 14.32 35.0094 13.48C34.5027 12.64 34.2494 11.6867 34.2494 10.62C34.2494 9.55333 34.5027 8.6 35.0094 7.76C35.516 6.92 36.216 6.26667 37.1094 5.8C38.016 5.32 39.036 5.08 40.1694 5.08C41.3027 5.08 42.316 5.32 43.2094 5.8C44.1027 6.26667 44.8027 6.92 45.3094 7.76C45.816 8.6 46.0694 9.55333 46.0694 10.62C46.0694 11.6867 45.816 12.64 45.3094 13.48C44.8027 14.32 44.1027 14.98 43.2094 15.46C42.316 15.9267 41.3027 16.16 40.1694 16.16ZM40.1694 13.6C40.9694 13.6 41.6227 13.3333 42.1294 12.8C42.6494 12.2533 42.9094 11.5267 42.9094 10.62C42.9094 9.71333 42.6494 8.99333 42.1294 8.46C41.6227 7.91333 40.9694 7.64 40.1694 7.64C39.3694 7.64 38.7094 7.91333 38.1894 8.46C37.6694 8.99333 37.4094 9.71333 37.4094 10.62C37.4094 11.5267 37.6694 12.2533 38.1894 12.8C38.7094 13.3333 39.3694 13.6 40.1694 13.6ZM54.6948 5.08C56.0282 5.08 57.1015 5.48 57.9148 6.28C58.7415 7.08 59.1548 8.26667 59.1548 9.84V16H56.0348V10.32C56.0348 9.46667 55.8482 8.83333 55.4748 8.42C55.1015 7.99333 54.5615 7.78 53.8548 7.78C53.0682 7.78 52.4415 8.02667 51.9748 8.52C51.5082 9 51.2748 9.72 51.2748 10.68V16H48.1548V5.24H51.1348V6.5C51.5482 6.04667 52.0615 5.7 52.6748 5.46C53.2882 5.20667 53.9615 5.08 54.6948 5.08ZM72.6402 10.66C72.6402 10.7 72.6202 10.98 72.5802 11.5H64.4402C64.5868 12.1667 64.9335 12.6933 65.4802 13.08C66.0268 13.4667 66.7068 13.66 67.5202 13.66C68.0802 13.66 68.5735 13.58 69.0002 13.42C69.4402 13.2467 69.8468 12.98 70.2202 12.62L71.8802 14.42C70.8668 15.58 69.3868 16.16 67.4402 16.16C66.2268 16.16 65.1535 15.9267 64.2202 15.46C63.2868 14.98 62.5668 14.32 62.0602 13.48C61.5535 12.64 61.3002 11.6867 61.3002 10.62C61.3002 9.56667 61.5468 8.62 62.0402 7.78C62.5468 6.92667 63.2335 6.26667 64.1002 5.8C64.9802 5.32 65.9602 5.08 67.0402 5.08C68.0935 5.08 69.0468 5.30667 69.9002 5.76C70.7535 6.21333 71.4202 6.86667 71.9002 7.72C72.3935 8.56 72.6402 9.54 72.6402 10.66ZM67.0602 7.44C66.3535 7.44 65.7602 7.64 65.2802 8.04C64.8002 8.44 64.5068 8.98667 64.4002 9.68H69.7002C69.5935 9 69.3002 8.46 68.8202 8.06C68.3402 7.64667 67.7535 7.44 67.0602 7.44ZM85.1214 2V16H81.8814V4.6H79.0814V2H85.1214ZM92.9534 2V16H89.7134V4.6H86.9134V2H92.9534ZM107.99 2C109.23 2 110.303 2.20667 111.21 2.62C112.13 3.03333 112.836 3.62 113.33 4.38C113.823 5.14 114.07 6.04 114.07 7.08C114.07 8.10667 113.823 9.00667 113.33 9.78C112.836 10.54 112.13 11.1267 111.21 11.54C110.303 11.94 109.23 12.14 107.99 12.14H105.17V16H101.93V2H107.99ZM107.81 9.5C108.783 9.5 109.523 9.29333 110.03 8.88C110.536 8.45333 110.79 7.85333 110.79 7.08C110.79 6.29333 110.536 5.69333 110.03 5.28C109.523 4.85333 108.783 4.64 107.81 4.64H105.17V9.5H107.81ZM119.143 6.66C119.516 6.14 120.016 5.74667 120.643 5.48C121.283 5.21333 122.016 5.08 122.843 5.08V7.96C122.496 7.93333 122.263 7.92 122.143 7.92C121.249 7.92 120.549 8.17333 120.043 8.68C119.536 9.17333 119.283 9.92 119.283 10.92V16H116.163V5.24H119.143V6.66ZM129.72 16.16C128.587 16.16 127.567 15.9267 126.66 15.46C125.767 14.98 125.067 14.32 124.56 13.48C124.053 12.64 123.8 11.6867 123.8 10.62C123.8 9.55333 124.053 8.6 124.56 7.76C125.067 6.92 125.767 6.26667 126.66 5.8C127.567 5.32 128.587 5.08 129.72 5.08C130.853 5.08 131.867 5.32 132.76 5.8C133.653 6.26667 134.353 6.92 134.86 7.76C135.367 8.6 135.62 9.55333 135.62 10.62C135.62 11.6867 135.367 12.64 134.86 13.48C134.353 14.32 133.653 14.98 132.76 15.46C131.867 15.9267 130.853 16.16 129.72 16.16ZM129.72 13.6C130.52 13.6 131.173 13.3333 131.68 12.8C132.2 12.2533 132.46 11.5267 132.46 10.62C132.46 9.71333 132.2 8.99333 131.68 8.46C131.173 7.91333 130.52 7.64 129.72 7.64C128.92 7.64 128.26 7.91333 127.74 8.46C127.22 8.99333 126.96 9.71333 126.96 10.62C126.96 11.5267 127.22 12.2533 127.74 12.8C128.26 13.3333 128.92 13.6 129.72 13.6Z" fill="black"/>
</svg>
