<svg width="94" height="17" viewBox="0 0 94 17" fill="none" xmlns="http://www.w3.org/2000/svg">
<path d="M0.637266 5.24H3.75727V16H0.637266V5.24ZM2.19727 3.74C1.62393 3.74 1.15727 3.57333 0.797266 3.24C0.437266 2.90667 0.257266 2.49333 0.257266 2C0.257266 1.50667 0.437266 1.09333 0.797266 0.76C1.15727 0.426666 1.62393 0.259999 2.19727 0.259999C2.7706 0.259999 3.23727 0.419999 3.59727 0.74C3.95727 1.06 4.13727 1.46 4.13727 1.94C4.13727 2.46 3.95727 2.89333 3.59727 3.24C3.23727 3.57333 2.7706 3.74 2.19727 3.74ZM12.9329 2C14.1729 2 15.2462 2.20667 16.1529 2.62C17.0729 3.03333 17.7796 3.62 18.2729 4.38C18.7662 5.14 19.0129 6.04 19.0129 7.08C19.0129 8.10667 18.7662 9.00667 18.2729 9.78C17.7796 10.54 17.0729 11.1267 16.1529 11.54C15.2462 11.94 14.1729 12.14 12.9329 12.14H10.1129V16H6.87289V2H12.9329ZM12.7529 9.5C13.7262 9.5 14.4662 9.29333 14.9729 8.88C15.4796 8.45333 15.7329 7.85333 15.7329 7.08C15.7329 6.29333 15.4796 5.69333 14.9729 5.28C14.4662 4.85333 13.7262 4.64 12.7529 4.64H10.1129V9.5H12.7529ZM27.8413 5.08C29.1747 5.08 30.248 5.48 31.0613 6.28C31.888 7.08 32.3013 8.26667 32.3013 9.84V16H29.1813V10.32C29.1813 9.46667 28.9947 8.83333 28.6213 8.42C28.248 7.99333 27.708 7.78 27.0013 7.78C26.2147 7.78 25.588 8.02667 25.1213 8.52C24.6547 9 24.4213 9.72 24.4213 10.68V16H21.3013V1.16H24.4213V6.36C24.8347 5.94667 25.3347 5.63333 25.9213 5.42C26.508 5.19333 27.148 5.08 27.8413 5.08ZM40.3666 16.16C39.2333 16.16 38.2133 15.9267 37.3066 15.46C36.4133 14.98 35.7133 14.32 35.2066 13.48C34.7 12.64 34.4466 11.6867 34.4466 10.62C34.4466 9.55333 34.7 8.6 35.2066 7.76C35.7133 6.92 36.4133 6.26667 37.3066 5.8C38.2133 5.32 39.2333 5.08 40.3666 5.08C41.5 5.08 42.5133 5.32 43.4066 5.8C44.3 6.26667 45 6.92 45.5066 7.76C46.0133 8.6 46.2666 9.55333 46.2666 10.62C46.2666 11.6867 46.0133 12.64 45.5066 13.48C45 14.32 44.3 14.98 43.4066 15.46C42.5133 15.9267 41.5 16.16 40.3666 16.16ZM40.3666 13.6C41.1666 13.6 41.82 13.3333 42.3266 12.8C42.8466 12.2533 43.1066 11.5267 43.1066 10.62C43.1066 9.71333 42.8466 8.99333 42.3266 8.46C41.82 7.91333 41.1666 7.64 40.3666 7.64C39.5666 7.64 38.9066 7.91333 38.3866 8.46C37.8666 8.99333 37.6066 9.71333 37.6066 10.62C37.6066 11.5267 37.8666 12.2533 38.3866 12.8C38.9066 13.3333 39.5666 13.6 40.3666 13.6ZM54.8921 5.08C56.2254 5.08 57.2988 5.48 58.1121 6.28C58.9388 7.08 59.3521 8.26667 59.3521 9.84V16H56.2321V10.32C56.2321 9.46667 56.0454 8.83333 55.6721 8.42C55.2988 7.99333 54.7588 7.78 54.0521 7.78C53.2654 7.78 52.6388 8.02667 52.1721 8.52C51.7054 9 51.4721 9.72 51.4721 10.68V16H48.3521V5.24H51.3321V6.5C51.7454 6.04667 52.2588 5.7 52.8721 5.46C53.4854 5.20667 54.1588 5.08 54.8921 5.08ZM72.8374 10.66C72.8374 10.7 72.8174 10.98 72.7774 11.5H64.6374C64.7841 12.1667 65.1308 12.6933 65.6774 13.08C66.2241 13.4667 66.9041 13.66 67.7174 13.66C68.2774 13.66 68.7708 13.58 69.1974 13.42C69.6374 13.2467 70.0441 12.98 70.4174 12.62L72.0774 14.42C71.0641 15.58 69.5841 16.16 67.6374 16.16C66.4241 16.16 65.3508 15.9267 64.4174 15.46C63.4841 14.98 62.7641 14.32 62.2574 13.48C61.7508 12.64 61.4974 11.6867 61.4974 10.62C61.4974 9.56667 61.7441 8.62 62.2374 7.78C62.7441 6.92667 63.4308 6.26667 64.2974 5.8C65.1774 5.32 66.1574 5.08 67.2374 5.08C68.2908 5.08 69.2441 5.30667 70.0974 5.76C70.9508 6.21333 71.6174 6.86667 72.0974 7.72C72.5908 8.56 72.8374 9.54 72.8374 10.66ZM67.2574 7.44C66.5508 7.44 65.9574 7.64 65.4774 8.04C64.9974 8.44 64.7041 8.98667 64.5974 9.68H69.8974C69.7908 9 69.4974 8.46 69.0174 8.06C68.5374 7.64667 67.9508 7.44 67.2574 7.44ZM85.3187 2V16H82.0787V4.6H79.2787V2H85.3187ZM93.1507 2V16H89.9107V4.6H87.1107V2H93.1507Z" fill="black"/>
</svg>
